<svg xmlns="http://www.w3.org/2000/svg" xmlns:xlink="http://www.w3.org/1999/xlink" width="192" zoomAndPan="magnify" viewBox="0 0 144 143.999998" height="192" preserveAspectRatio="xMidYMid meet" version="1.0"><defs><clipPath id="d4a4d01a60"><rect x="0" width="144" y="0" height="144"/></clipPath></defs><g transform="matrix(1, 0, 0, 1, 0, -0.000000000000008916)"><g clip-path="url(#d4a4d01a60)"><path fill="#fc0e97" d="M 115.199219 64.621094 L 40.320312 64.621094 L 78.480469 26.460938 C 78.820312 26.136719 79.125 25.777344 79.394531 25.390625 C 79.664062 25.003906 79.890625 24.59375 80.078125 24.160156 C 80.261719 23.726562 80.402344 23.28125 80.496094 22.820312 C 80.589844 22.359375 80.640625 21.890625 80.640625 21.421875 C 80.640625 20.949219 80.589844 20.480469 80.496094 20.019531 C 80.402344 19.558594 80.261719 19.113281 80.078125 18.679688 C 79.890625 18.246094 79.664062 17.835938 79.394531 17.449219 C 79.125 17.0625 78.820312 16.707031 78.480469 16.378906 C 78.15625 16.039062 77.796875 15.734375 77.410156 15.464844 C 77.023438 15.195312 76.613281 14.96875 76.179688 14.785156 C 75.75 14.597656 75.300781 14.457031 74.839844 14.363281 C 74.378906 14.269531 73.910156 14.222656 73.441406 14.222656 C 72.96875 14.222656 72.503906 14.269531 72.039062 14.363281 C 71.578125 14.457031 71.132812 14.597656 70.699219 14.785156 C 70.265625 14.96875 69.855469 15.195312 69.46875 15.464844 C 69.082031 15.734375 68.726562 16.039062 68.398438 16.378906 L 28.078125 56.699219 C 26.320312 58.5 24.914062 60.542969 23.863281 62.828125 C 22.8125 65.117188 22.179688 67.511719 21.960938 70.019531 C 21.960938 70.738281 21.601562 71.101562 21.601562 71.820312 C 21.542969 72.570312 21.664062 73.289062 21.960938 73.980469 C 22.214844 76.476562 22.863281 78.867188 23.914062 81.148438 C 24.960938 83.429688 26.351562 85.480469 28.078125 87.300781 L 68.398438 127.621094 C 68.730469 127.945312 69.09375 128.234375 69.480469 128.492188 C 69.871094 128.746094 70.28125 128.960938 70.710938 129.136719 C 71.140625 129.308594 71.585938 129.441406 72.042969 129.527344 C 72.5 129.617188 72.960938 129.660156 73.425781 129.65625 C 73.890625 129.65625 74.351562 129.605469 74.804688 129.515625 C 75.261719 129.421875 75.703125 129.285156 76.132812 129.109375 C 76.5625 128.929688 76.96875 128.710938 77.355469 128.449219 C 77.742188 128.191406 78.101562 127.898438 78.429688 127.570312 C 78.757812 127.242188 79.050781 126.882812 79.3125 126.496094 C 79.570312 126.109375 79.789062 125.703125 79.96875 125.273438 C 80.148438 124.84375 80.28125 124.402344 80.375 123.945312 C 80.46875 123.492188 80.515625 123.03125 80.515625 122.566406 C 80.519531 122.101562 80.476562 121.640625 80.390625 121.183594 C 80.300781 120.726562 80.167969 120.28125 79.996094 119.851562 C 79.820312 119.421875 79.605469 119.011719 79.351562 118.621094 C 79.09375 118.234375 78.804688 117.871094 78.480469 117.539062 L 40.679688 79.019531 L 115.199219 79.019531 C 115.671875 79.019531 116.140625 78.972656 116.605469 78.882812 C 117.066406 78.789062 117.519531 78.652344 117.957031 78.472656 C 118.390625 78.289062 118.808594 78.070312 119.199219 77.804688 C 119.59375 77.542969 119.957031 77.246094 120.292969 76.910156 C 120.625 76.578125 120.925781 76.214844 121.1875 75.820312 C 121.449219 75.425781 121.671875 75.011719 121.851562 74.574219 C 122.03125 74.136719 122.167969 73.6875 122.261719 73.226562 C 122.355469 72.761719 122.398438 72.292969 122.398438 71.820312 C 122.398438 71.347656 122.355469 70.878906 122.261719 70.414062 C 122.167969 69.953125 122.03125 69.5 121.851562 69.066406 C 121.671875 68.628906 121.449219 68.214844 121.1875 67.820312 C 120.925781 67.425781 120.625 67.0625 120.292969 66.730469 C 119.957031 66.394531 119.59375 66.097656 119.199219 65.832031 C 118.808594 65.570312 118.390625 65.347656 117.957031 65.167969 C 117.519531 64.988281 117.066406 64.851562 116.605469 64.757812 C 116.140625 64.667969 115.671875 64.621094 115.199219 64.621094 Z M 115.199219 64.621094 " fill-opacity="1" fill-rule="nonzero"/></g></g></svg>