<svg xmlns="http://www.w3.org/2000/svg" xmlns:xlink="http://www.w3.org/1999/xlink" width="163" zoomAndPan="magnify" viewBox="0 0 122.25 122.250003" height="163" preserveAspectRatio="xMidYMid meet" version="1.0"><defs><clipPath id="28ecc087e0"><path d="M 0 0 L 121.503906 0 L 121.503906 121.503906 L 0 121.503906 Z M 0 0 " clip-rule="nonzero"/></clipPath><clipPath id="3fc8f821a0"><path d="M 0 0 L 121.316406 0 L 121.316406 121.316406 L 0 121.316406 Z M 0 0 " clip-rule="nonzero"/></clipPath><clipPath id="aa343d73d5"><rect x="0" width="122" y="0" height="122"/></clipPath></defs><g clip-path="url(#28ecc087e0)"><g transform="matrix(1, 0, 0, 1, 0, 0.000000000000019756)"><g clip-path="url(#aa343d73d5)"><g clip-path="url(#3fc8f821a0)"><path fill="#fc0e97" d="M 107.3125 0 L 39.28125 0 C 31.558594 0 25.273438 6.289062 25.273438 14.011719 L 25.273438 25.273438 L 14.007812 25.273438 C 6.28125 25.273438 0 31.5625 0 39.285156 L 0 116.261719 C 0 118.3125 1.226562 120.152344 3.117188 120.933594 C 3.746094 121.191406 4.402344 121.316406 5.054688 121.316406 C 6.371094 121.316406 7.664062 120.808594 8.628906 119.835938 L 32.421875 96.042969 L 66.871094 96.042969 C 74.597656 96.042969 80.878906 89.761719 80.878906 82.035156 L 80.878906 70.769531 L 98.238281 70.769531 L 111.933594 93.59375 C 112.855469 95.144531 114.519531 96.042969 116.265625 96.042969 C 116.714844 96.042969 117.167969 95.988281 117.613281 95.863281 C 119.800781 95.253906 121.316406 93.261719 121.316406 90.988281 L 121.316406 14.011719 C 121.316406 6.289062 115.035156 0 107.3125 0 Z M 25.273438 45.496094 L 45.496094 45.496094 C 48.289062 45.496094 50.550781 47.757812 50.550781 50.550781 C 50.550781 53.34375 48.289062 55.605469 45.496094 55.605469 L 25.273438 55.605469 C 22.480469 55.605469 20.21875 53.34375 20.21875 50.550781 C 20.21875 47.757812 22.480469 45.496094 25.273438 45.496094 Z M 55.605469 75.824219 L 25.273438 75.824219 C 22.480469 75.824219 20.21875 73.5625 20.21875 70.769531 C 20.21875 67.980469 22.480469 65.714844 25.273438 65.714844 L 55.605469 65.714844 C 58.398438 65.714844 60.660156 67.980469 60.660156 70.769531 C 60.660156 73.5625 58.398438 75.824219 55.605469 75.824219 Z M 111.207031 72.742188 L 105.429688 63.117188 C 104.519531 61.589844 102.878906 60.660156 101.097656 60.660156 L 80.878906 60.660156 L 80.878906 39.285156 C 80.878906 31.5625 74.59375 25.273438 66.871094 25.273438 L 35.382812 25.273438 L 35.382812 14.011719 C 35.382812 11.863281 37.132812 10.109375 39.28125 10.109375 L 107.3125 10.109375 C 109.460938 10.109375 111.207031 11.863281 111.207031 14.011719 Z M 111.207031 72.742188 " fill-opacity="1" fill-rule="nonzero"/></g></g></g></g></svg>