<svg xmlns="http://www.w3.org/2000/svg" xmlns:xlink="http://www.w3.org/1999/xlink" width="192" zoomAndPan="magnify" viewBox="0 0 144 143.999998" height="192" preserveAspectRatio="xMidYMid meet" version="1.0"><defs><clipPath id="c614055c32"><rect x="0" width="144" y="0" height="144"/></clipPath></defs><g transform="matrix(1, 0, 0, 1, 0, -0.000000000000008916)"><g clip-path="url(#c614055c32)"><path stroke-linecap="round" transform="matrix(6, 0, 0, 6, 0.00000125, 0.000002)" fill="none" stroke-linejoin="round" d="M 5 21.000001 C 5 17.134115 8.134115 14 12.000001 14 C 15.865886 14 19.000001 17.134115 19.000001 21.000001 M 16.000001 7 C 16.000001 9.208985 14.208985 11 12.000001 11 C 9.791016 11 8 9.208985 8 7 C 8 4.791016 9.791016 3 12.000001 3 C 14.208985 3 16.000001 4.791016 16.000001 7 Z M 16.000001 7 " stroke="#fc0e97" stroke-width="2" stroke-opacity="1" stroke-miterlimit="4"/></g></g></svg>