<svg xmlns="http://www.w3.org/2000/svg" xmlns:xlink="http://www.w3.org/1999/xlink" width="192" zoomAndPan="magnify" viewBox="0 0 144 143.999998" height="192" preserveAspectRatio="xMidYMid meet" version="1.0"><defs><clipPath id="908be3f25b"><rect x="0" width="144" y="0" height="144"/></clipPath></defs><g transform="matrix(1, 0, 0, 1, 0, -0.000000000000008916)"><g clip-path="url(#908be3f25b)"><path stroke-linecap="round" transform="matrix(6, 0, 0, 6, 0.00000125, 0.000002)" fill="none" stroke-linejoin="round" d="M 13.000001 20.000001 L 13.000001 18.000001 C 13.000001 15.238282 10.761719 13 8 13 C 5.238281 13 3 15.238282 3 18.000001 L 3 20.000001 Z M 13.000001 20.000001 L 21.000001 20.000001 L 21.000001 19.000001 C 21.000001 16.054688 18.76172 14 16.000001 14 C 14.586589 14 13.310547 14.625652 12.401042 15.63086 M 11 7 C 11 8.656901 9.656901 10 8 10 C 6.343099 10 5 8.656901 5 7 C 5 5.343099 6.343099 4 8 4 C 9.656901 4 11 5.343099 11 7 Z M 18.000001 9 C 18.000001 10.104818 17.104819 11 16.000001 11 C 14.895183 11 14.000001 10.104818 14.000001 9 C 14.000001 7.895182 14.895183 7 16.000001 7 C 17.104819 7 18.000001 7.895182 18.000001 9 Z M 18.000001 9 " stroke="#fb6c9d" stroke-width="2" stroke-opacity="1" stroke-miterlimit="4"/></g></g></svg>