<svg xmlns="http://www.w3.org/2000/svg" xmlns:xlink="http://www.w3.org/1999/xlink" width="182" zoomAndPan="magnify" viewBox="0 0 136.5 136.499995" height="182" preserveAspectRatio="xMidYMid meet" version="1.0"><defs><clipPath id="279fc08829"><path d="M 0 0 L 135.628906 0 L 135.628906 135.628906 L 0 135.628906 Z M 0 0 " clip-rule="nonzero"/></clipPath><clipPath id="03799b30f5"><rect x="0" width="136" y="0" height="136"/></clipPath></defs><g transform="matrix(1, 0, 0, 1, 0, -0.000000000000016291)"><g clip-path="url(#03799b30f5)"><g clip-path="url(#279fc08829)"><path fill="#fb6c9d" d="M 119.96875 0 L 43.914062 0 C 35.28125 0 28.253906 7.03125 28.253906 15.664062 L 28.253906 28.257812 L 15.660156 28.257812 C 7.023438 28.257812 0 35.285156 0 43.921875 L 0 129.976562 C 0 132.265625 1.375 134.324219 3.488281 135.199219 C 4.1875 135.488281 4.921875 135.628906 5.652344 135.628906 C 7.121094 135.628906 8.566406 135.058594 9.648438 133.972656 L 36.246094 107.371094 L 74.757812 107.371094 C 83.394531 107.371094 90.417969 100.347656 90.417969 91.710938 L 90.417969 79.117188 L 109.824219 79.117188 L 125.132812 104.632812 C 126.167969 106.367188 128.027344 107.371094 129.976562 107.371094 C 130.480469 107.371094 130.988281 107.308594 131.488281 107.167969 C 133.933594 106.492188 135.628906 104.265625 135.628906 101.722656 L 135.628906 15.664062 C 135.628906 7.03125 128.605469 0 119.96875 0 Z M 28.257812 50.859375 L 50.859375 50.859375 C 53.984375 50.859375 56.511719 53.390625 56.511719 56.511719 C 56.511719 59.636719 53.984375 62.164062 50.859375 62.164062 L 28.257812 62.164062 C 25.132812 62.164062 22.605469 59.636719 22.605469 56.511719 C 22.605469 53.390625 25.128906 50.859375 28.257812 50.859375 Z M 62.164062 84.769531 L 28.257812 84.769531 C 25.132812 84.769531 22.605469 82.242188 22.605469 79.117188 C 22.605469 75.996094 25.132812 73.464844 28.257812 73.464844 L 62.164062 73.464844 C 65.289062 73.464844 67.8125 75.996094 67.8125 79.117188 C 67.8125 82.242188 65.289062 84.769531 62.164062 84.769531 Z M 124.324219 81.320312 L 117.867188 70.5625 C 116.847656 68.855469 115.011719 67.8125 113.023438 67.8125 L 90.417969 67.8125 L 90.417969 43.921875 C 90.417969 35.285156 83.394531 28.257812 74.757812 28.257812 L 39.558594 28.257812 L 39.558594 15.664062 C 39.558594 13.261719 41.511719 11.300781 43.914062 11.300781 L 119.96875 11.300781 C 122.371094 11.300781 124.324219 13.261719 124.324219 15.664062 Z M 124.324219 81.320312 " fill-opacity="1" fill-rule="nonzero"/></g></g></g></svg>