<svg xmlns="http://www.w3.org/2000/svg" xmlns:xlink="http://www.w3.org/1999/xlink" width="192" zoomAndPan="magnify" viewBox="0 0 144 143.999998" height="192" preserveAspectRatio="xMidYMid meet" version="1.0"><defs><clipPath id="8111e6cf1f"><rect x="0" width="144" y="0" height="144"/></clipPath></defs><g transform="matrix(1, 0, 0, 1, 0, -0.000000000000008916)"><g clip-path="url(#8111e6cf1f)"><path stroke-linecap="round" transform="matrix(6, 0, 0, 6, 0.00000125, 0.000002)" fill="none" stroke-linejoin="round" d="M 15.000001 12 C 15.000001 13.656902 13.656902 15.000001 12.000001 15.000001 C 10.343099 15.000001 9 13.656902 9 12 C 9 10.343099 10.343099 9 12.000001 9 C 13.656902 9 15.000001 10.343099 15.000001 12 Z M 15.000001 12 " stroke="#fb6c9d" stroke-width="2" stroke-opacity="1" stroke-miterlimit="4"/><path stroke-linecap="round" transform="matrix(6, 0, 0, 6, 0.00000125, 0.000002)" fill="none" stroke-linejoin="round" d="M 12.904297 3.059896 C 12.698568 3 12.466146 3 12.000001 3 C 11.533855 3 11.301433 3 11.095704 3.059896 C 10.794271 3.147786 10.527995 3.328125 10.334636 3.57487 C 10.202474 3.744141 10.115886 3.960286 9.942709 4.392578 C 9.694011 5.014323 9.003907 5.334635 8.36849 5.123047 L 7.797526 4.932943 C 7.392578 4.797526 7.190755 4.730469 6.992188 4.71875 C 6.700521 4.701823 6.410156 4.770182 6.156901 4.916016 C 5.984375 5.014974 5.833985 5.166016 5.531901 5.467448 C 5.210938 5.788411 5.050781 5.948568 4.949219 6.132161 C 4.799479 6.401042 4.735677 6.709635 4.767578 7.015625 C 4.789063 7.223958 4.873047 7.434245 5.041667 7.855469 C 5.305339 8.514974 5.052083 9.26888 4.442708 9.634115 L 4.165365 9.800781 C 3.740234 10.05599 3.527995 10.183594 3.373698 10.358724 C 3.236979 10.514323 3.134115 10.695964 3.070964 10.893229 C 3 11.115886 3 11.365886 3 11.866537 C 3 12.458985 3 12.755209 3.094401 13.009115 C 3.178385 13.233073 3.314453 13.433594 3.491536 13.594402 C 3.691406 13.776693 3.964193 13.885417 4.508464 14.103516 C 5.065104 14.326172 5.352214 14.944011 5.162109 15.513021 L 4.947266 16.158204 C 4.798177 16.605469 4.723958 16.828777 4.716797 17.048829 C 4.708984 17.312501 4.770182 17.574219 4.895833 17.806641 C 5 18.000001 5.166667 18.166667 5.5 18.500001 C 5.833333 18.833334 6 19.000001 6.19336 19.104167 C 6.425781 19.229819 6.6875 19.291016 6.951172 19.283204 C 7.171224 19.276042 7.394531 19.201824 7.841797 19.052735 L 8.36849 18.876954 C 9.003907 18.665365 9.694011 18.985678 9.942709 19.607423 C 10.115886 20.039714 10.202474 20.25586 10.334636 20.425131 C 10.527995 20.671876 10.794271 20.852214 11.095704 20.940105 C 11.301433 21.000001 11.533855 21.000001 12.000001 21.000001 C 12.466146 21.000001 12.698568 21.000001 12.904297 20.940105 C 13.20573 20.852214 13.472006 20.671876 13.665365 20.425131 C 13.797527 20.25586 13.884115 20.039714 14.057292 19.607423 C 14.30599 18.985678 14.996094 18.665365 15.631511 18.877605 L 16.158204 19.052735 C 16.604818 19.201824 16.828777 19.276694 17.048178 19.283204 C 17.312501 19.291016 17.573569 19.229819 17.80599 19.104167 C 18.000001 19.000001 18.166668 18.833334 18.49935 18.500001 C 18.832683 18.166667 18.99935 18.000001 19.103517 17.806641 C 19.229168 17.574219 19.291017 17.312501 19.282553 17.048829 C 19.276043 16.828777 19.201173 16.605469 19.052084 16.158204 L 18.83724 15.513672 C 18.647787 14.944662 18.934246 14.326172 19.491537 14.103516 C 20.035808 13.885417 20.308595 13.776693 20.509116 13.594402 C 20.685548 13.433594 20.821616 13.233073 20.9056 13.009115 C 21.000001 12.755209 21.000001 12.458985 21.000001 11.866537 C 21.000001 11.365886 21.000001 11.115886 20.929037 10.893229 C 20.865886 10.695964 20.763022 10.514323 20.626303 10.358724 C 20.472006 10.183594 20.259767 10.05599 19.834636 9.800781 L 19.556642 9.634115 C 18.947918 9.26888 18.694011 8.514974 18.957683 7.855469 C 19.126303 7.434245 19.210287 7.223958 19.231772 7.015625 C 19.263673 6.708984 19.200522 6.401042 19.050782 6.13151 C 18.948569 5.948568 18.788412 5.788411 18.467449 5.467448 C 18.166016 5.166016 18.014975 5.014974 17.842449 4.916016 C 17.589194 4.770182 17.29948 4.701823 17.007813 4.71875 C 16.809246 4.730469 16.606772 4.797526 16.201824 4.932943 L 15.631511 5.123047 C 14.996094 5.334635 14.30599 5.014323 14.057292 4.392578 C 13.884115 3.960286 13.797527 3.744141 13.665365 3.57487 C 13.472006 3.328125 13.20573 3.147786 12.904297 3.059896 Z M 12.904297 3.059896 " stroke="#fb6c9d" stroke-width="2" stroke-opacity="1" stroke-miterlimit="4"/></g></g></svg>