<svg xmlns="http://www.w3.org/2000/svg" xmlns:xlink="http://www.w3.org/1999/xlink" width="192" zoomAndPan="magnify" viewBox="0 0 144 143.999998" height="192" preserveAspectRatio="xMidYMid meet" version="1.0"><defs><clipPath id="09a716c9ed"><rect x="0" width="144" y="0" height="144"/></clipPath></defs><g transform="matrix(1, 0, 0, 1, 0, -0.000000000000008916)"><g clip-path="url(#09a716c9ed)"><path fill="#ffb000" d="M 132 72 C 132 105.136719 105.136719 132 72 132 C 38.863281 132 12 105.136719 12 72 C 12 38.863281 38.863281 12 72 12 C 105.136719 12 132 38.863281 132 72 Z M 32.761719 66.5 C 35 46.800781 51.746094 31.5 72.058594 31.5 C 84.886719 31.5 96.292969 37.609375 103.511719 47.054688 C 105.023438 49.03125 104.644531 51.855469 102.667969 53.363281 C 100.695312 54.871094 97.871094 54.492188 96.359375 52.519531 C 90.773438 45.207031 81.96875 40.5 72.058594 40.5 C 56.710938 40.5 44.019531 51.792969 41.839844 66.5 L 44.019531 66.5 C 45.839844 66.5 47.480469 67.597656 48.175781 69.28125 C 48.875 70.960938 48.488281 72.898438 47.199219 74.183594 L 40.1875 81.183594 C 38.433594 82.9375 35.585938 82.9375 33.828125 81.183594 L 26.820312 74.183594 C 25.53125 72.898438 25.144531 70.960938 25.84375 69.28125 C 26.539062 67.597656 28.179688 66.5 30 66.5 Z M 110.171875 62.816406 C 108.414062 61.0625 105.566406 61.0625 103.8125 62.816406 L 96.800781 69.816406 C 95.511719 71.101562 95.128906 73.039062 95.824219 74.71875 C 96.519531 76.402344 98.160156 77.5 99.980469 77.5 L 102.160156 77.5 C 99.980469 92.207031 87.289062 103.5 71.941406 103.5 C 62.078125 103.5 53.308594 98.835938 47.71875 91.582031 C 46.199219 89.613281 43.375 89.25 41.40625 90.765625 C 39.4375 92.285156 39.070312 95.109375 40.589844 97.078125 C 47.8125 106.449219 59.171875 112.5 71.941406 112.5 C 92.257812 112.5 109 97.199219 111.238281 77.5 L 114 77.5 C 115.820312 77.5 117.460938 76.402344 118.15625 74.71875 C 118.855469 73.039062 118.46875 71.101562 117.179688 69.816406 Z M 110.171875 62.816406 " fill-opacity="1" fill-rule="evenodd"/></g></g></svg>